<?xml version="1.0" encoding="utf-8"?>
<!-- Generator: Adobe Illustrator 18.1.0, SVG Export Plug-In . SVG Version: 6.00 Build 0)  -->
<!DOCTYPE svg PUBLIC "-//W3C//DTD SVG 1.1//EN" "http://www.w3.org/Graphics/SVG/1.1/DTD/svg11.dtd">
<svg version="1.1" xmlns="http://www.w3.org/2000/svg" xmlns:xlink="http://www.w3.org/1999/xlink" x="0px" y="0px"
	 viewBox="0 0 192 198" enable-background="new 0 0 192 198" xml:space="preserve">
<g id="Layer_2">
</g>
<g id="Layer_1">
	<g opacity="0.95">
		<path fill="#FFFFFF" d="M81.4,87.9V76.4H56.3v20.8C65.7,92.9,72.1,90.7,81.4,87.9z"/>
		<path fill="#FFFFFF" d="M105.9,50.1c0,0-47.4,0-49.4,0c-1.3,0-2.4-0.1-3.3-0.1c-1-0.1-2.2,0.6-2.6,1.6L39.2,78.3
			c0,0,5-1.9,11.7-1.9c2.4,0,55,0,55,0V50.1z"/>
		<path fill="#FFFFFF" d="M105.9,80.7C118.6,76.3,131,70,131,59.8c0-3.7,0-7.1,0-9.7c0-2.5,0-4.2,0-4.7c0-3.1,0.2-4.6,0.3-5.5
			c0.1-1-0.8-2-1.8-2.2l-25-6c0,0,1.4,4.9,1.4,10.6C105.9,44.3,105.9,67.1,105.9,80.7z"/>
		<path fill="#FFFFFF" d="M105.9,104.3V116H131V95.2C121.7,99.4,115,101.5,105.9,104.3z"/>
		<path fill="#FFFFFF" d="M145.9,62.4c-4.3-11-14.9-12.3-14.9-12.3s0,1.9,0,9.7c0,14.3-24.5,20.9-40,25.3
			c-15.5,4.4-22.6,6.5-35.3,12.3C43,103.4,37.1,118.9,41.4,130c4.3,11,14.9,12.3,14.9,12.3s0-1.9,0-9.7c0-14.3,25.1-20.6,40-25.3
			c14.9-4.7,22.6-6.5,35.3-12.3C144.3,89.1,150.2,73.5,145.9,62.4z"/>
		<path fill="#FFFFFF" d="M56.3,132.6c0,3.7,0,10.6,0,16.7c0,9,0,17.4-10,22.7c-3.1,1.7-6.3,2.2-6.3,2.2L51.8,197
			c0,0,3.1-1.7,7.2-3.6c22.4-10.8,22.5-34.4,22.5-44.1V112C68.8,116.4,56.3,122.5,56.3,132.6z"/>
		<path fill="#FFFFFF" d="M136.1,116c-3.8,0-54.7,0-54.7,0v24c0,0.7,0,1.5,0,2.3c9.6,0,53.8,0,56.6,0c1.4,0,2.7,0.1,3.6,0.2
			c1,0.1,2-0.6,2.1-1.6l4.1-26.6C147.8,114.3,144.2,116,136.1,116z"/>
	</g>
	<g>
		<g opacity="0.25">
			<linearGradient id="SVGID_1_" gradientUnits="userSpaceOnUse" x1="68.8701" y1="76.4023" x2="68.8701" y2="85.7539">
				<stop  offset="0" style="stop-color:#000000"/>
				<stop  offset="1" style="stop-color:#FFFFFF"/>
			</linearGradient>
			<rect x="56.3" y="76.4" fill="url(#SVGID_1_)" width="25.1" height="9.4"/>
		</g>
		<g opacity="0.25">
			<linearGradient id="SVGID_2_" gradientUnits="userSpaceOnUse" x1="117.1565" y1="101.149" x2="120.0623" y2="108.3622">
				<stop  offset="0" style="stop-color:#000000"/>
				<stop  offset="1" style="stop-color:#FFFFFF"/>
			</linearGradient>
			<path fill="url(#SVGID_2_)" d="M105.9,104.3v9.3c11.2-3.7,18.2-6.1,25.1-9.8v-8.6C121.7,99.4,115,101.5,105.9,104.3z"/>
		</g>
		<g opacity="0.1">
			<linearGradient id="SVGID_3_" gradientUnits="userSpaceOnUse" x1="69.1644" y1="95.1759" x2="68.471" y2="89.0606">
				<stop  offset="0" style="stop-color:#000000"/>
				<stop  offset="1" style="stop-color:#FFFFFF"/>
			</linearGradient>
			<path fill="url(#SVGID_3_)" d="M81.4,87.9L81.4,87.9c-5.8,0.9-15.3,0.4-25.1,3.1v6.2C65.7,92.9,72.1,90.7,81.4,87.9z"/>
		</g>
		<g opacity="0.2">
			<linearGradient id="SVGID_4_" gradientUnits="userSpaceOnUse" x1="62.8402" y1="122.1195" x2="68.7398" y2="128.7749">
				<stop  offset="0" style="stop-color:#000000"/>
				<stop  offset="1" style="stop-color:#FFFFFF"/>
			</linearGradient>
			<path fill="url(#SVGID_4_)" d="M56.3,132.6v13.3c0-13.9,13.3-19.7,25.1-23.8V112C68.8,116.4,56.3,122.5,56.3,132.6z"/>
		</g>
		<g opacity="0.3">
			<g>
				<linearGradient id="SVGID_5_" gradientUnits="userSpaceOnUse" x1="60.3747" y1="140.1792" x2="53.6075" y2="126.6447">
					<stop  offset="0" style="stop-color:#000000"/>
					<stop  offset="1" style="stop-color:#FFFFFF"/>
				</linearGradient>
				<path fill="url(#SVGID_5_)" d="M64.2,120.1C64.2,120.1,64.3,120.1,64.2,120.1c-10.8,5.8-11,14-18,12.6c-2.6-0.5-4.7-2.4-5.6-5.6
					c0.2,1,0.5,2,0.9,3c4.3,11,14.9,12.3,14.9,12.3s0-1.9,0-9.7C56.3,127.5,59.5,123.4,64.2,120.1z M56.8,129.2
					C56.8,129.2,56.8,129.2,56.8,129.2C56.8,129.2,56.8,129.2,56.8,129.2C56.8,129.2,56.8,129.2,56.8,129.2z"/>
			</g>
		</g>
		<g opacity="0.25">
			<linearGradient id="SVGID_6_" gradientUnits="userSpaceOnUse" x1="78.2067" y1="130.2893" x2="96.2553" y2="128.7301">
				<stop  offset="0" style="stop-color:#000000"/>
				<stop  offset="1" style="stop-color:#FFFFFF"/>
			</linearGradient>
			<polygon fill="url(#SVGID_6_)" points="100.9,142.3 81.4,142.3 81.4,116 98.5,116 			"/>
		</g>
		<g opacity="0.25">
			<linearGradient id="SVGID_7_" gradientUnits="userSpaceOnUse" x1="107.3912" y1="64.5321" x2="95.6739" y2="62.737">
				<stop  offset="0" style="stop-color:#000000"/>
				<stop  offset="1" style="stop-color:#FFFFFF"/>
			</linearGradient>
			<polygon fill="url(#SVGID_7_)" points="92.2,76.4 105.9,76.4 105.9,50.1 94.5,50.1 			"/>
		</g>
		<g opacity="0.15">
			<linearGradient id="SVGID_8_" gradientUnits="userSpaceOnUse" x1="121.7837" y1="75.379" x2="119.3294" y2="69.5187">
				<stop  offset="0" style="stop-color:#000000"/>
				<stop  offset="1" style="stop-color:#FFFFFF"/>
			</linearGradient>
			<path fill="url(#SVGID_8_)" d="M131,59.8v-5.6c0,12.3-14.4,16.8-25.1,20.6c0,1.1,0,5.1,0,5.9C118.6,76.3,131,70,131,59.8z"/>
		</g>
		<g opacity="0.3">
			<linearGradient id="SVGID_9_" gradientUnits="userSpaceOnUse" x1="128.3852" y1="51.7953" x2="133.5228" y2="61.454">
				<stop  offset="0" style="stop-color:#000000"/>
				<stop  offset="1" style="stop-color:#FFFFFF"/>
			</linearGradient>
			<path fill="url(#SVGID_9_)" d="M139.5,56.7c2.7,0,3.8,1.4,4.7,2.4c-4.9-7.9-13.2-9-13.2-9s0,1.9,0,9.7c0,2.7-0.9,5.2-2.5,7.4
				c0,0,0.1-0.1,0.1-0.1c-0.1,0.1-0.1,0.2-0.2,0.2v0c-0.7,0.9-1.4,1.8-2.3,2.7C135.8,61.3,134.7,56.7,139.5,56.7z"/>
		</g>
	</g>
</g>
</svg>
