<?xml version="1.0" encoding="utf-8"?>
<!-- Generator: Adobe Illustrator 18.1.0, SVG Export Plug-In . SVG Version: 6.00 Build 0)  -->
<!DOCTYPE svg PUBLIC "-//W3C//DTD SVG 1.1//EN" "http://www.w3.org/Graphics/SVG/1.1/DTD/svg11.dtd">
<svg version="1.1" xmlns="http://www.w3.org/2000/svg" xmlns:xlink="http://www.w3.org/1999/xlink" x="0px" y="0px"
	 viewBox="0 0 192 198" enable-background="new 0 0 192 198" xml:space="preserve">
<g id="Layer_2">
</g>
<g id="Layer_1">
	<path fill="#94B6B6" d="M96,0C43,0,0,43,0,96c0,32.2,15.9,60.7,40.2,78.1c0.7-0.1,3.3-0.7,5.8-2C21.3,155.8,5,127.8,5,96
		C5,45.7,45.7,5,96,5c50.3,0,91,40.8,91,91c0,50.3-40.8,91-91,91c-8.5,0-16.7-1.2-24.4-3.3c-1.2,1.4-2.5,2.8-4,4
		c9,2.8,18.5,4.3,28.4,4.3c53,0,96-43,96-96S149,0,96,0z"/>
	<g opacity="0.4">
		<radialGradient id="SVGID_1_" cx="96" cy="96" r="96" fx="96" fy="188.16" gradientUnits="userSpaceOnUse">
			<stop  offset="0" style="stop-color:#072120;stop-opacity:0"/>
			<stop  offset="0.9757" style="stop-color:#072120;stop-opacity:0"/>
			<stop  offset="1" style="stop-color:#072120;stop-opacity:0.8"/>
		</radialGradient>
		<path fill="url(#SVGID_1_)" d="M96,0C43,0,0,43,0,96c0,32.2,15.9,60.7,40.2,78.1c0.7-0.1,3.3-0.7,5.8-2C21.3,155.8,5,127.8,5,96
			C5,45.7,45.7,5,96,5c50.3,0,91,40.8,91,91c0,50.3-40.8,91-91,91c-8.5,0-16.7-1.2-24.4-3.3c-1.2,1.4-2.5,2.8-4,4
			c9,2.8,18.5,4.3,28.4,4.3c53,0,96-43,96-96S149,0,96,0z"/>
	</g>
	<g>
		<path fill="#94B6B6" d="M96,11.2c-46.8,0-84.8,37.9-84.8,84.8c0,30.5,16.1,57.2,40.2,72.1c4.8-5.1,4.9-11.8,4.9-18.9
			c0-1,0-3.5,0-6.9c0,0-10.5-1.3-14.9-12.3c-4.3-11,1.6-26.6,14.3-32.5c0.2-0.1,0.4-0.2,0.6-0.3V77.7v-1.3c-3,0-5,0-5.4,0
			c-6.8,0-11.7,1.9-11.7,1.9l11.4-26.7c0.4-0.9,1.6-1.6,2.6-1.6c0.9,0.1,2,0.1,3.3,0.1c2,0,49.4,0,49.4,0c0-4.5,0-7.4,0-7.8
			c0-5.7-1.4-10.6-1.4-10.6l25,6c1,0.2,1.8,1.2,1.8,2.2c-0.1,0.9-0.3,2.4-0.3,5.5c0,0.5,0,2.2,0,4.7c0,0,10.5,1.3,14.9,12.3
			c4.3,11-1.5,26.6-14.3,32.5c-0.2,0.1-0.4,0.2-0.6,0.3c0,9.7,0,17.4,0,18.7v2.1c2.7,0,4.5,0,5.1,0c8.1,0,11.7-1.8,11.7-1.8
			l-4.1,26.6c-0.2,1-1.1,1.7-2.1,1.6c-0.9-0.1-2.2-0.2-3.6-0.2c-2.8,0-47,0-56.6,0v6.9c0,6.3,0,18.3-6.1,29
			c6.6,1.7,13.5,2.5,20.7,2.5c46.8,0,84.8-37.9,84.8-84.8C180.8,49.2,142.8,11.2,96,11.2z"/>
		<path fill="#94B6B6" d="M81.4,116c0,0,11.8,0,24.5,0c0-3.7,0-7.6,0-11.7c-2.9,0.9-6.1,1.8-9.6,3c-4.4,1.4-9.6,2.9-14.9,4.7V116z"
			/>
		<path fill="#94B6B6" d="M105.9,76.4c0,0-11.8,0-24.5,0v11.5v0c2.9-0.8,6-1.7,9.6-2.8c4.5-1.3,9.7-2.7,14.9-4.5
			C105.9,79.2,105.9,77.8,105.9,76.4z"/>
	</g>
	<g>
		<radialGradient id="SVGID_2_" cx="96.248" cy="97.6731" r="86.7087" fx="96.4337" fy="133.485" gradientUnits="userSpaceOnUse">
			<stop  offset="0.8689" style="stop-color:#072120;stop-opacity:0"/>
			<stop  offset="0.9811" style="stop-color:#072120;stop-opacity:0.3422"/>
			<stop  offset="1" style="stop-color:#072120;stop-opacity:0.4"/>
		</radialGradient>
		<path fill="url(#SVGID_2_)" d="M96,11.2c-46.8,0-84.8,37.9-84.8,84.8c0,25.2,11,47.8,28.5,63.3c-14.1-14.3-20.9-33.8-20.9-55.5
			c0-43.6,33.6-77,77.2-77c43.6,0,77.2,33.3,77.2,77c0,21.6-6.9,41.2-20.9,55.5c17.5-15.5,28.5-38.1,28.5-63.3
			C180.8,49.2,142.8,11.2,96,11.2z"/>
	</g>
	<g>
		<g>
			<linearGradient id="SVGID_3_" gradientUnits="userSpaceOnUse" x1="47.3736" y1="76.6309" x2="47.9138" y2="82.4561">
				<stop  offset="0" style="stop-color:#072120;stop-opacity:0.5"/>
				<stop  offset="1" style="stop-color:#072120;stop-opacity:0"/>
			</linearGradient>
			<path fill="url(#SVGID_3_)" d="M50.9,76.4c-6.8,0-11.7,1.9-11.7,1.9V85c0,0,5-1.9,11.7-1.9c0.4,0,2.4,0,5.4,0v-6.7
				C53.3,76.4,51.3,76.4,50.9,76.4z"/>
			
				<radialGradient id="SVGID_4_" cx="132.7985" cy="82.8991" r="12.9264" gradientTransform="matrix(0.7966 0.6045 -1.1147 1.4688 119.4238 -119.148)" gradientUnits="userSpaceOnUse">
				<stop  offset="0.6488" style="stop-color:#072120;stop-opacity:0.5"/>
				<stop  offset="1" style="stop-color:#072120;stop-opacity:0"/>
			</radialGradient>
			<path fill="url(#SVGID_4_)" d="M131.6,94.9c-0.2,0.1-0.4,0.2-0.6,0.3v6.7c7.9-4.9,15.6-10.1,16.3-30.3
				C146.8,80.8,141.1,90.6,131.6,94.9z"/>
			
				<radialGradient id="SVGID_5_" cx="53.2295" cy="134.9883" r="10.631" gradientTransform="matrix(-0.7704 0.6376 -1.0898 -1.3169 241.3477 278.8122)" gradientUnits="userSpaceOnUse">
				<stop  offset="0.5567" style="stop-color:#072120;stop-opacity:0.5"/>
				<stop  offset="1" style="stop-color:#072120;stop-opacity:0"/>
			</radialGradient>
			<path fill="url(#SVGID_5_)" d="M55.2,142.1c-2.8-0.7-10.3-3.3-13.8-12.1c-0.1-0.3-0.2-0.5-0.3-0.8c-0.5-1.6-0.9-3.2-1-4.9
				c0.2,3.3,0.4,9.2,0.8,10.3c0.2,0.6,0.3,1.1,0.5,1.6c4,10.1,13.1,13,14.7,13.4c0.1-1.3,0.2-2.6,0.2-3.9l0-3.5L55.2,142.1z"/>
			<linearGradient id="SVGID_6_" gradientUnits="userSpaceOnUse" x1="93.0156" y1="108.1411" x2="95.1755" y2="114.8437">
				<stop  offset="0" style="stop-color:#072120;stop-opacity:0.5"/>
				<stop  offset="1" style="stop-color:#072120;stop-opacity:0"/>
			</linearGradient>
			<path fill="url(#SVGID_6_)" d="M81.4,112L81.4,112v4c0,0,4.3,0,10.4,0c1.5-0.5,3-0.9,4.4-1.4c4.1-1.3,7.2-2.2,9.6-3v-7.4
				c-2.9,0.9-6.1,1.8-9.6,3C91.9,108.6,86.7,110.2,81.4,112z"/>
			<linearGradient id="SVGID_7_" gradientUnits="userSpaceOnUse" x1="93.6631" y1="76.4023" x2="93.6631" y2="82.7544">
				<stop  offset="0" style="stop-color:#072120;stop-opacity:0.5"/>
				<stop  offset="1" style="stop-color:#072120;stop-opacity:0"/>
			</linearGradient>
			<path fill="url(#SVGID_7_)" d="M105.9,80.7L105.9,80.7c0-1.3,0-2.8,0-4.3c0,0-6.8,0-15.6,0c-2.8,0-5.8,0-8.9,0v6.7
				c6.2,0,12.3,0,16.8,0C100.7,82.4,103.3,81.6,105.9,80.7z"/>
			<linearGradient id="SVGID_8_" gradientUnits="userSpaceOnUse" x1="113.0078" y1="141.9583" x2="113.0078" y2="149.3775">
				<stop  offset="0" style="stop-color:#072120;stop-opacity:0.5"/>
				<stop  offset="1" style="stop-color:#072120;stop-opacity:0"/>
			</linearGradient>
			<path fill="url(#SVGID_8_)" d="M141.6,142.5c-0.9-0.1-2.2-0.2-3.6-0.2c-2,0-24.1,0-40.5,0c-7.1,0-13.2,0-16.1,0v7.4
				c1.1,0,2.8,0,4.7,0c14.7,0,49.4,0,51.8,0c1.4,0,2.7,0.1,3.6,0.1c1,0.1,2.8-0.6,3-1.6l-1.4-6.3
				C142.8,142.3,142.2,142.5,141.6,142.5z"/>
			<linearGradient id="SVGID_9_" gradientUnits="userSpaceOnUse" x1="145.3197" y1="131.1255" x2="147.1911" y2="131.3928">
				<stop  offset="0" style="stop-color:#072120;stop-opacity:0.5"/>
				<stop  offset="1" style="stop-color:#072120;stop-opacity:0"/>
			</linearGradient>
			<path fill="url(#SVGID_9_)" d="M143.7,140.9c-0.1,0.4-0.3,0.8-0.6,1.1l1.4,6.3l3.2-21.9v-12.1L143.7,140.9z"/>
			<linearGradient id="SVGID_10_" gradientUnits="userSpaceOnUse" x1="78.6005" y1="164.8693" x2="81.4427" y2="165.4853">
				<stop  offset="0" style="stop-color:#072120;stop-opacity:0.5"/>
				<stop  offset="1" style="stop-color:#072120;stop-opacity:0"/>
			</linearGradient>
			<path fill="url(#SVGID_10_)" d="M75.3,178.2c1.2,0.3,2.3,0.6,3.5,0.8c2.5-8.1,2.5-16,2.5-20.7v-6.9h0
				C81.4,158,80.8,168.7,75.3,178.2z"/>
			<linearGradient id="SVGID_11_" gradientUnits="userSpaceOnUse" x1="68.4495" y1="185.1186" x2="75.1001" y2="187.329">
				<stop  offset="0" style="stop-color:#072120;stop-opacity:0.5"/>
				<stop  offset="1" style="stop-color:#072120;stop-opacity:0"/>
			</linearGradient>
			<path fill="url(#SVGID_11_)" d="M76.6,184.9c-1.7-0.4-3.4-0.8-5-1.2c-1.2,1.4-2.5,2.8-4,4c2.1,0.7,4.3,1.2,6.4,1.7
				C75,188,75.8,186.5,76.6,184.9z"/>
		</g>
	</g>
</g>
</svg>
