<?xml version="1.0" encoding="utf-8"?>
<!-- Generator: Adobe Illustrator 18.1.0, SVG Export Plug-In . SVG Version: 6.00 Build 0)  -->
<!DOCTYPE svg PUBLIC "-//W3C//DTD SVG 1.1//EN" "http://www.w3.org/Graphics/SVG/1.1/DTD/svg11.dtd">
<svg version="1.1" xmlns="http://www.w3.org/2000/svg" xmlns:xlink="http://www.w3.org/1999/xlink" x="0px" y="0px"
	 viewBox="0 0 108.6 165.3" enable-background="new 0 0 108.6 165.3" xml:space="preserve">
<g id="Layer_2">
</g>
<g id="Layer_1">
	<g>
		<path fill="#FFFFFF" d="M42.2,56.2V44.7H17.1v20.8C26.5,61.2,33,58.9,42.2,56.2z"/>
		<path fill="#FFFFFF" d="M66.7,18.4c0,0-47.4,0-49.4,0c-1.3,0-2.4-0.1-3.3-0.1c-1-0.1-2.2,0.6-2.6,1.6L0,46.5c0,0,5-1.9,11.7-1.9
			c2.4,0,55,0,55,0V18.4z"/>
		<path fill="#FFFFFF" d="M66.7,48.9c12.7-4.4,25.1-10.7,25.1-20.8c0-3.7,0-7.1,0-9.7c0-2.5,0-4.2,0-4.7c0-3.1,0.2-4.6,0.3-5.5
			c0.1-1-0.8-2-1.8-2.2l-25-6c0,0,1.4,4.9,1.4,10.6C66.7,12.5,66.7,35.3,66.7,48.9z"/>
		<path fill="#FFFFFF" d="M66.7,72.5v11.7h25.1V63.4C82.5,67.7,75.8,69.8,66.7,72.5z"/>
		<path fill="#FFFFFF" d="M106.7,30.7c-4.3-11-14.9-12.3-14.9-12.3s0,1.9,0,9.7c0,14.3-24.5,20.9-40,25.3
			c-15.5,4.4-22.6,6.5-35.3,12.3C3.8,71.6-2.1,87.2,2.3,98.2c4.3,11,14.9,12.3,14.9,12.3s0-1.9,0-9.7c0-14.3,25.1-20.6,40-25.3
			C72,70.8,79.7,69,92.4,63.2C105.2,57.3,111,41.7,106.7,30.7z"/>
		<path fill="#FFFFFF" d="M17.1,100.8c0,3.7,0,10.6,0,16.7c0,9,0,17.4-10,22.7c-3.1,1.7-6.3,2.2-6.3,2.2l11.7,22.8
			c0,0,3.1-1.7,7.2-3.6c22.4-10.8,22.5-34.4,22.5-44.1V80.2C29.7,84.6,17.1,90.7,17.1,100.8z"/>
		<path fill="#FFFFFF" d="M97,84.3c-3.8,0-54.7,0-54.7,0v24c0,0.7,0,1.5,0,2.3c9.6,0,53.8,0,56.6,0c1.4,0,2.7,0.1,3.6,0.2
			c1,0.1,2-0.6,2.1-1.6l4.1-26.6C108.6,82.5,105,84.3,97,84.3z"/>
	</g>
	<g>
		<g opacity="0.25">
			<linearGradient id="SVGID_1_" gradientUnits="userSpaceOnUse" x1="29.6904" y1="44.6562" x2="29.6904" y2="54.0078">
				<stop  offset="0" style="stop-color:#000000"/>
				<stop  offset="1" style="stop-color:#FFFFFF"/>
			</linearGradient>
			<rect x="17.1" y="44.7" fill="url(#SVGID_1_)" width="25.1" height="9.4"/>
		</g>
		<g opacity="0.25">
			<linearGradient id="SVGID_2_" gradientUnits="userSpaceOnUse" x1="77.9769" y1="69.4029" x2="80.8826" y2="76.6161">
				<stop  offset="0" style="stop-color:#000000"/>
				<stop  offset="1" style="stop-color:#FFFFFF"/>
			</linearGradient>
			<path fill="url(#SVGID_2_)" d="M66.7,72.5v9.3c11.2-3.7,18.2-6.1,25.1-9.8v-8.6C82.5,67.7,75.8,69.8,66.7,72.5z"/>
		</g>
		<g opacity="0.1">
			<linearGradient id="SVGID_3_" gradientUnits="userSpaceOnUse" x1="29.9847" y1="63.4298" x2="29.2914" y2="57.3145">
				<stop  offset="0" style="stop-color:#000000"/>
				<stop  offset="1" style="stop-color:#FFFFFF"/>
			</linearGradient>
			<path fill="url(#SVGID_3_)" d="M42.2,56.2L42.2,56.2C36.4,57,27,56.6,17.1,59.3v6.2C26.5,61.2,33,58.9,42.2,56.2z"/>
		</g>
		<g opacity="0.2">
			<linearGradient id="SVGID_4_" gradientUnits="userSpaceOnUse" x1="23.6605" y1="90.3734" x2="29.5601" y2="97.0288">
				<stop  offset="0" style="stop-color:#000000"/>
				<stop  offset="1" style="stop-color:#FFFFFF"/>
			</linearGradient>
			<path fill="url(#SVGID_4_)" d="M17.1,100.8v13.3c0-13.9,13.3-19.7,25.1-23.8V80.2C29.7,84.6,17.1,90.7,17.1,100.8z"/>
		</g>
		<g opacity="0.3">
			<g>
				<linearGradient id="SVGID_5_" gradientUnits="userSpaceOnUse" x1="21.195" y1="108.4331" x2="14.4278" y2="94.8986">
					<stop  offset="0" style="stop-color:#000000"/>
					<stop  offset="1" style="stop-color:#FFFFFF"/>
				</linearGradient>
				<path fill="url(#SVGID_5_)" d="M25.1,88.3C25.1,88.3,25.1,88.3,25.1,88.3c-10.8,5.8-11,14-18,12.6c-2.6-0.5-4.7-2.4-5.6-5.6
					c0.2,1,0.5,2,0.9,3c4.3,11,14.9,12.3,14.9,12.3s0-1.9,0-9.7C17.1,95.8,20.3,91.7,25.1,88.3z M17.6,97.5
					C17.6,97.5,17.7,97.4,17.6,97.5C17.7,97.4,17.7,97.4,17.6,97.5C17.7,97.4,17.7,97.5,17.6,97.5z"/>
			</g>
		</g>
		<g opacity="0.25">
			<linearGradient id="SVGID_6_" gradientUnits="userSpaceOnUse" x1="39.027" y1="98.5432" x2="57.0757" y2="96.984">
				<stop  offset="0" style="stop-color:#000000"/>
				<stop  offset="1" style="stop-color:#FFFFFF"/>
			</linearGradient>
			<polygon fill="url(#SVGID_6_)" points="61.7,110.6 42.2,110.6 42.2,84.3 59.3,84.3 			"/>
		</g>
		<g opacity="0.25">
			<linearGradient id="SVGID_7_" gradientUnits="userSpaceOnUse" x1="68.2115" y1="32.786" x2="56.4942" y2="30.9909">
				<stop  offset="0" style="stop-color:#000000"/>
				<stop  offset="1" style="stop-color:#FFFFFF"/>
			</linearGradient>
			<polygon fill="url(#SVGID_7_)" points="53,44.7 66.7,44.7 66.7,18.4 55.4,18.4 			"/>
		</g>
		<g opacity="0.15">
			<linearGradient id="SVGID_8_" gradientUnits="userSpaceOnUse" x1="82.604" y1="43.6329" x2="80.1497" y2="37.7726">
				<stop  offset="0" style="stop-color:#000000"/>
				<stop  offset="1" style="stop-color:#FFFFFF"/>
			</linearGradient>
			<path fill="url(#SVGID_8_)" d="M91.8,28.1v-5.6c0,12.3-14.4,16.8-25.1,20.6c0,1.1,0,5.1,0,5.9C79.5,44.6,91.8,38.3,91.8,28.1z"/>
		</g>
		<g opacity="0.3">
			<linearGradient id="SVGID_9_" gradientUnits="userSpaceOnUse" x1="89.2055" y1="20.0492" x2="94.3431" y2="29.7079">
				<stop  offset="0" style="stop-color:#000000"/>
				<stop  offset="1" style="stop-color:#FFFFFF"/>
			</linearGradient>
			<path fill="url(#SVGID_9_)" d="M100.3,24.9c2.7,0,3.8,1.4,4.7,2.4c-4.9-7.9-13.2-9-13.2-9s0,1.9,0,9.7c0,2.7-0.9,5.2-2.5,7.4
				c0,0,0.1-0.1,0.1-0.1c-0.1,0.1-0.1,0.2-0.2,0.2v0c-0.7,0.9-1.4,1.8-2.3,2.7C96.6,29.6,95.5,24.9,100.3,24.9z"/>
		</g>
	</g>
</g>
</svg>
